<?xml version="1.0" encoding="UTF-8"?>
<svg width="665px" height="459px" viewBox="0 0 665 459" version="1.1" xmlns="http://www.w3.org/2000/svg" xmlns:xlink="http://www.w3.org/1999/xlink">
    <!-- Generator: Sketch 46.2 (44496) - http://www.bohemiancoding.com/sketch -->
    <title>Artboard</title>
    <desc>Created with Sketch.</desc>
    <defs>
        <filter x="-4.8%" y="-0.8%" width="106.7%" height="102.5%" filterUnits="objectBoundingBox" id="filter-1">
            <feOffset dx="-4" dy="2" in="SourceAlpha" result="shadowOffsetOuter1"></feOffset>
            <feGaussianBlur stdDeviation="0.5" in="shadowOffsetOuter1" result="shadowBlurOuter1"></feGaussianBlur>
            <feColorMatrix values="0 0 0 0 0.326504039   0 0 0 0 0.326504039   0 0 0 0 0.326504039  0 0 0 0.5 0" type="matrix" in="shadowBlurOuter1" result="shadowMatrixOuter1"></feColorMatrix>
            <feMerge>
                <feMergeNode in="shadowMatrixOuter1"></feMergeNode>
                <feMergeNode in="SourceGraphic"></feMergeNode>
            </feMerge>
        </filter>
    </defs>
    <g id="Page-1" stroke="none" stroke-width="1" fill="none" fill-rule="evenodd">
        <g id="Artboard">
            <g id="Icon" filter="url(#filter-1)" transform="translate(244.000000, 91.000000)">
                <g id="HalfBulb" fill="#FFEA00">
                    <path d="M89,260 L51,260 C46.581722,260 43,256.418278 43,252 L43,249.75 L43,247.5 L43,207 L42.9528341,207 C42.5156563,193.251189 39.0276175,181.298391 32,172.139413 L32,171.826973 C31.7653246,171.63555 31.5315213,171.442954 31.2985934,171.249194 C28.8291107,168.197535 25.8989002,165.432208 22.7088094,163.167088 C18.6156286,158.825987 14.8714632,154.082879 11.5,149 C1.42634609,133.812776 -5.68434189e-14,115.589784 -5.68434189e-14,96 C-5.68434189e-14,42.980664 35.980664,0 89,0 L89,260 Z" id="Combined-Shape"></path>
                </g>
                <g id="RightBulb" transform="translate(89.000000, 0.000000)" fill="#FBC02D">
                    <g id="HalfBulb" transform="translate(44.500000, 130.000000) scale(-1, 1) translate(-44.500000, -130.000000) ">
                        <path d="M89,260 L51,260 C46.581722,260 43,256.418278 43,252 L43,249.75 L43,247.5 L43,207 L42.9528341,207 C42.5156563,193.251189 39.0276175,181.298391 32,172.139413 L32,171.826973 C31.7653246,171.63555 31.5315213,171.442954 31.2985934,171.249194 C28.8291107,168.197535 25.8989002,165.432208 22.7088094,163.167088 C18.6156286,158.825987 14.8714632,154.082879 11.5,149 C1.42634609,133.812776 -5.68434189e-14,115.589784 -5.68434189e-14,96 C-5.68434189e-14,42.980664 35.980664,0 89,0 L89,260 Z" id="Combined-Shape"></path>
                    </g>
                </g>
                <path d="M89,284 L129.5,284 C131.985281,284 134,286.014719 134,288.5 C134,290.985281 131.985281,293 129.5,293 L89,293 L89,284 Z M89,273 L129.5,273 C131.985281,273 134,275.014719 134,277.5 C134,279.985281 131.985281,282 129.5,282 L89,282 L89,273 Z M89,306 L102.5,306 C104.985281,306 107,308.014719 107,310.5 C107,312.985281 104.985281,315 102.5,315 L89,315 L89,306 Z M89,295 L120.5,295 C122.985281,295 125,297.014719 125,299.5 C125,301.985281 122.985281,304 120.5,304 L89,304 L89,295 Z M89,262 L129.5,262 C131.985281,262 134,264.014719 134,266.5 L134,266.5 C134,268.985281 131.985281,271 129.5,271 L89,271 L89,262 Z" id="Combined-Shape" fill="#9B9B9B"></path>
                <path d="M44,284 L84.5,284 C86.9852814,284 89,286.014719 89,288.5 C89,290.985281 86.9852814,293 84.5,293 L44,293 L44,284 Z M44,273 L84.5,273 C86.9852814,273 89,275.014719 89,277.5 C89,279.985281 86.9852814,282 84.5,282 L44,282 L44,273 Z M44,306 L57.5,306 C59.9852814,306 62,308.014719 62,310.5 C62,312.985281 59.9852814,315 57.5,315 L44,315 L44,306 Z M44,295 L75.5,295 C77.9852814,295 80,297.014719 80,299.5 C80,301.985281 77.9852814,304 75.5,304 L44,304 L44,295 Z M44,262 L84.5,262 C86.9852814,262 89,264.014719 89,266.5 L89,266.5 C89,268.985281 86.9852814,271 84.5,271 L44,271 L44,262 Z" id="Combined-Shape-Copy" fill="#D8D8D8" transform="translate(66.500000, 288.500000) scale(-1, 1) translate(-66.500000, -288.500000) "></path>
            </g>
            <g id="FillamentL" transform="translate(353.000000, 282.500000) scale(-1, 1) translate(-353.000000, -282.500000) translate(332.000000, 214.000000)">
                <circle id="Oval-2" stroke="#B7B7B7" fill-opacity="0" fill="#FFFFFF" cx="15" cy="15" r="15"></circle>
                <rect id="Rectangle" fill="#FBC02D" x="16" y="16" width="14" height="14"></rect>
                <path d="M30.5,137 L30,14" id="Line" stroke="#B7B7B7" stroke-linecap="square"></path>
                <path d="M16.5,30.5 L41.5,30" id="Line-3" stroke="#B7B7B7" stroke-linecap="square"></path>
            </g>
            <g id="FillamentR" transform="translate(291.000000, 214.000000)">
                <circle id="Oval-2" stroke="#D7D7D7" fill-opacity="0" fill="#FFFFFF" cx="15" cy="15" r="15"></circle>
                <rect id="Rectangle" fill="#FFEA00" x="16" y="16" width="14" height="14"></rect>
                <path d="M30.5,137 L30,14" id="Line" stroke="#D7D7D7" stroke-linecap="square"></path>
                <path d="M16.5,30.5 L41.5,30" id="Line-3" stroke="#D7D7D7" stroke-linecap="square"></path>
            </g>
        </g>
    </g>
</svg>